<?xml version="1.0" encoding="iso-8859-1"?>
<!-- Generator: Adobe Illustrator 18.1.1, SVG Export Plug-In . SVG Version: 6.00 Build 0)  -->
<svg version="1.1" id="Capa_1" xmlns="http://www.w3.org/2000/svg" xmlns:xlink="http://www.w3.org/1999/xlink" x="0px" y="0px"
	 viewBox="0 0 468.69 468.69" style="enable-background:new 0 0 468.69 468.69;" xml:space="preserve">
<g>
	<g>
		<path style="fill:#010002;" d="M9.772,241.748c-0.585,0.667-1.162,1.374-1.723,2.178l-1.544,2.235l0.106,2.715
			c1.374,35.611,10.657,69.41,27.597,100.453c40.155,73.629,117.149,119.36,200.938,119.36
			c126.139,0,228.754-102.615,228.754-228.754c0-36.034-8.194-70.58-24.142-102.217c-7.925-18.606,0.008-51.039,3.869-62.403
			c0.341-1.211,3.349-12.112,3.349-18.972c0-30.092-23.963-54.266-55.738-56.233c-19.671-1.171-33.855,7.104-43.285,18.858
			c-16.509-6.161-31.181-0.374-39.245,2.812c-1.341,0.528-2.845,1.211-4.471,1.967c-10.201,4.731-15.574,6.031-20.517,1.252
			C266.708,8.613,245.249,3.638,224.83,11.287c-10.405,3.91-14.729,12.112-17.867,18.102c-1.016,1.918-2.536,4.828-3.227,5.284
			c-0.203,0.049-4.032,0.667-18.395-10.201c-15.184-11.486-29.58-15.761-42.724-12.794c-12.323,2.804-19.85,11.307-23.313,16.2
			c-4.454,0.894-8.429,1.772-11.713,2.528c-15.769,3.633-16.704,3.853-32.27-8.876c-12.063-9.86-26.231-9.397-37.018,1.17
			c-10.827,10.616-16.192,30.978-6.568,43.228l2.333,2.951c11.445,14.396,18.184,23.963,12.721,38.521
			c-2.113,5.641-6.04,12.933-10.201,20.647c-10.421,19.33-22.11,41.001-18.533,58.867C8.537,198.504-1.478,220.151,9.772,241.748z
			 M390.222,16.343c23.077,1.431,40.48,18.631,40.48,40.009c0,3.495-1.683,10.795-2.609,14.136
			c-0.626,1.845-15.306,45.439-3.089,74.068c15.013,29.824,22.622,61.915,22.622,95.381c0,117.165-95.332,212.497-212.497,212.497
			c-77.831,0-149.354-42.488-186.665-110.882c-15.2-27.873-23.768-58.127-25.475-90c0.13-0.057,0.244-0.098,0.366-0.098
			c2.536,0,7.673,4.519,10.73,8.649c1.528,2.601,5.909,8.795,12.868,8.795c13.932,0,15.875-22.175,16.802-32.831
			c2.057-23.451,13.014-27.897,32.522-27.897c2.504,0,4.975,0.073,7.364,0.138c2.39,0.065,4.698,0.13,6.893,0.13
			c6.787,0,13.38,2.081,19.769,4.089c6.348,1.992,12.916,4.056,19.655,4.056c6.048,0,11.413-1.609,16.403-4.934
			c11.12-7.405,9.909-24.646,8.633-42.895c-0.862-12.29-2.17-30.848,3.512-33.986c3.195-1.764,6.885-2.626,11.299-2.626
			c10.388,0,22.354,4.869,31.97,8.771c4.072,1.65,7.771,3.146,10.9,4.146c11.494,3.658,25.743-0.13,34.368-9.039
			c5.495-5.674,8.381-12.916,8.129-20.386c-0.61-18.614,0.61-38.164,14.396-42.041c5.788-1.634,12.664-0.447,19.086,0.943
			c4.194,0.91,8.527,1.861,12.9,1.861c10.096,0,17.72-5.088,23.288-15.534c1.057-1.975,2.057-3.764,3.008-5.406l1.756-0.089
			l1.496-6.251C352.985,41.143,361.463,14.612,390.222,16.343z M327.721,57.344c-2.455,2.78-4.544,2.796-6.178,2.796
			c-2.626,0-5.934-0.723-9.437-1.488c-3.674-0.797-7.901-1.528-12.266-1.853C315.309,49.418,323.738,53.531,327.721,57.344z
			 M258.921,116.178c0.13,3.885-1.87,6.787-3.568,8.551c-4.276,4.414-11.583,6.503-17.224,4.918
			c-1.829-7.852-8.259-20.825-29.466-29.734c9.047-3.211,14.477-12.843,16.086-28.735c1.097-10.844,3.983-18.216,7.738-19.728
			c4.113-1.674,11.347,2.536,14.566,5.072c2.593,3.097,10.096,10.023,24.508,9.242C257.742,79.339,258.523,104.164,258.921,116.178z
			 M339.321,33.389c-1.406,3.219-2.56,6.503-3.455,9.787c-1.268-0.951-2.634-1.886-4.211-2.723
			c-3.918-2.097-9.21-3.869-15.859-3.975C321.771,34.104,330.038,31.08,339.321,33.389z M221.335,36.965
			c2.853-5.414,4.893-8.828,9.202-10.437c19.59-7.381,34.668,3.227,41.895,10.193c5.21,5.015,10.746,7.072,16.086,7.478
			c-21.963,10.616-28.629,2.374-28.751,2.276l-1.577-1.829c-1.707-1.471-17.07-14.127-31.71-8.307
			c-3.284,1.309-6.096,3.463-8.511,6.283C219.246,40.737,220.375,38.794,221.335,36.965z M146.21,27.544
			c8.259-1.853,18.119,1.455,29.303,9.917c12.364,9.348,20.842,13.51,27.946,13.51c1.301,0,2.561-0.138,3.788-0.415
			c3.788-0.845,6.519-2.837,8.681-5.235c-3.82,5.779-6.316,13.819-7.373,24.215c-1.105,10.909-3.902,14.631-5.389,15.103
			c-4.016,1.301-14.314-5.991-20.858-13.38l-0.667-0.667c-1.252-1.13-12.624-10.892-26.897-8.698
			c-2.422,0.382-4.723,1.122-6.934,2.13c1.203-2.398,2.333-3.999,2.357-4.024l0.91-1.544c0.691-1.536,6.552-15.355-1.04-25.003
			c-1.748-2.219-4.129-3.739-6.787-4.942C144.194,28.138,145.162,27.788,146.21,27.544z M181.765,92.695
			c-2.211-0.35-4.324-0.732-6.706-1.008c-12.144-1.414-21.021-4.373-25.841-8.502c2.495-2.951,5.162-4.739,7.99-5.202
			c5.349-0.919,11.209,2.78,13.323,4.511C172.319,84.477,176.457,88.752,181.765,92.695z M32.849,194.765l3.755-3.755l-1.926-4.942
			c-4.568-11.713,6.958-33.108,16.233-50.3c4.422-8.218,8.608-15.981,11.112-22.654c8.966-23.906-3.885-40.082-15.217-54.348
			l-2.284-2.886c-3.56-4.536-0.902-15.623,5.17-21.581c4.845-4.739,9.689-4.78,15.33-0.171
			c20.801,17.013,27.214,16.517,46.219,12.136c3.959-0.91,8.665-2.008,14.501-3.089c8.015-1.512,11.079-0.228,11.526,0.325
			c0.764,0.959,0.35,4.771-0.764,7.698c-2.674,3.942-11.941,19.289-5.601,34.026c5.308,12.364,19.533,19.964,42.285,22.606
			c18.842,2.187,30.945,6.861,38.481,11.965c-7.007-2.227-14.428-3.91-21.858-3.91c-7.137,0-13.583,1.569-19.159,4.658
			c-14.745,8.145-13.282,29.092-11.86,49.34c0.593,8.462,1.837,26.06-1.431,28.239c-5.763,3.829-13.152,1.731-22.159-1.105
			c-7.202-2.26-15.371-4.836-24.646-4.836c-2.048,0-4.219-0.065-6.446-0.122c-2.536-0.073-5.162-0.146-7.812-0.146
			c-12.307,0-44.975,0-48.715,42.74c-0.561,6.47-1.301,10.852-1.975,13.77c-3.69-4.471-11.486-12.331-20.825-13.087
			C13.284,215.046,32.02,195.611,32.849,194.765z"/>
		<path style="fill:#010002;" d="M390.271,337.397c13.77-33.035,17.338-74.352,5.015-107.216
			c-5.202-13.884-22.996-3.138-17.777,10.778c10.364,27.645,6.251,61.102-5.235,88.634
			C366.365,343.778,384.426,351.427,390.271,337.397z"/>
		<path style="fill:#010002;" d="M177.814,385.901c-35.115-17.151-54.226-55.128-62.395-94.771
			c-3.146-15.282-24.695-13.095-21.516,2.341c9.876,47.95,33.287,93.592,75.758,114.345
			C182.797,414.229,190.926,392.306,177.814,385.901z"/>
		<path style="fill:#010002;" d="M274.504,263.029c7.844,38.196,6.722,76.018-0.634,113.646
			c-2.975,15.209,16.078,20.476,19.021,5.381c8.21-42.017,8.6-84.09-0.122-126.586C289.631,240.171,271.382,247.82,274.504,263.029z
			"/>
	</g>
</g>
<g>
</g>
<g>
</g>
<g>
</g>
<g>
</g>
<g>
</g>
<g>
</g>
<g>
</g>
<g>
</g>
<g>
</g>
<g>
</g>
<g>
</g>
<g>
</g>
<g>
</g>
<g>
</g>
<g>
</g>
</svg>
