<?xml version="1.0" encoding="utf-8"?>
<!-- Generator: Adobe Illustrator 21.1.0, SVG Export Plug-In . SVG Version: 6.00 Build 0)  -->
<svg version="1.1" id="Capa_1" xmlns="http://www.w3.org/2000/svg" xmlns:xlink="http://www.w3.org/1999/xlink" x="0px" y="0px"
	 viewBox="0 0 361.4 361.4" style="enable-background:new 0 0 361.4 361.4;" xml:space="preserve">
<style type="text/css">
	.st0{fill:#EF8829;}
	.st1{fill:#3F2D20;}
</style>
<g>
	<g>
		<path class="st0" d="M208,133.4c0.8-0.3,1.6-0.6,2.4-0.9C209.5,132.8,208.7,133.1,208,133.4z"/>
		<path class="st0" d="M201.5,137.3c0.5-0.4,1-0.8,1.5-1.1C202.5,136.5,202,136.9,201.5,137.3z"/>
		<path class="st0" d="M210.9,132.4c0.9-0.3,1.8-0.5,2.8-0.7C212.7,131.8,211.8,132.1,210.9,132.4z"/>
		<path class="st0" d="M200.1,138.5c0.4-0.3,0.7-0.7,1.2-1C200.8,137.8,200.5,138.2,200.1,138.5z"/>
		<path class="st0" d="M213.7,131.7c1.1,1.6,1.9,2.8,2.5,3.8C215.5,134.2,214.7,132.9,213.7,131.7z"/>
		<path class="st0" d="M244.7,146.1c0.7,0.5,1.3,1,2,1.5C246,147.1,245.4,146.6,244.7,146.1z"/>
		<path class="st0" d="M250.1,150.3c0.6,0.5,1.2,1,1.8,1.5C251.4,151.3,250.7,150.8,250.1,150.3z"/>
		<path class="st0" d="M205.5,134.6c0.6-0.4,1.3-0.7,2-1C206.8,133.9,206.1,134.3,205.5,134.6z"/>
		<path class="st0" d="M239.1,142.4c0.6,0.4,1.2,0.8,1.8,1.2C240.3,143.2,239.7,142.8,239.1,142.4z"/>
		<path class="st0" d="M261.3,160.6c0.7,0.7,1.3,1.5,2,2.2C262.6,162.1,261.9,161.4,261.3,160.6z"/>
		<path class="st0" d="M265.6,165.6c0.7,0.8,1.3,1.6,1.9,2.4C266.9,167.2,266.3,166.4,265.6,165.6z"/>
		<path class="st0" d="M203.5,135.9c0.6-0.4,1.2-0.8,1.9-1.2C204.6,135.1,204,135.5,203.5,135.9z"/>
		<path class="st0" d="M258.2,157.5c-0.5-0.5-1-1-1.5-1.5C257.2,156.5,257.7,157,258.2,157.5z"/>
		<path class="st0" d="M183.7,137.2c0-0.4,0-0.8,0.1-1.2C183.8,136.3,183.7,136.7,183.7,137.2z"/>
		<path class="st0" d="M200,138.7c-0.4,0.4-0.7,0.7-1,1C199.2,139.4,199.6,139,200,138.7z"/>
		<path class="st0" d="M184.3,134.3c0.2-0.4,0.4-0.8,0.6-1.2C184.7,133.4,184.5,133.8,184.3,134.3z"/>
		<path class="st0" d="M183.9,135.6c0.1-0.3,0.2-0.7,0.3-1C184.1,134.9,184,135.3,183.9,135.6z"/>
		<path class="st0" d="M70.9,247.7c-0.1-1.3-0.2-2.6-0.3-3.9C70.7,245.1,70.8,246.4,70.9,247.7z"/>
		<path class="st0" d="M91.1,300.3c-0.8-1.1-1.5-2.1-2.3-3.2C89.5,298.1,90.3,299.2,91.1,300.3z"/>
		<path class="st0" d="M106.9,318c-1.3-1.2-2.6-2.4-3.9-3.6C104.3,315.6,105.6,316.8,106.9,318z"/>
		<path class="st0" d="M94.8,305.2c-1-1.2-1.9-2.4-2.8-3.6C92.9,302.8,93.8,304,94.8,305.2z"/>
		<path class="st0" d="M84.8,290.6c-0.6-1-1.1-2-1.7-3C83.7,288.6,84.3,289.6,84.8,290.6z"/>
		<path class="st0" d="M87.8,295.4c-0.7-1-1.3-2-1.9-3.1C86.5,293.4,87.1,294.4,87.8,295.4z"/>
		<path class="st0" d="M184.2,139.8c-0.1-0.3-0.2-0.6-0.3-0.9C184,139.2,184.1,139.5,184.2,139.8z"/>
		<path class="st0" d="M183.8,138.4c0-0.3-0.1-0.6-0.1-0.9C183.8,137.9,183.8,138.1,183.8,138.4z"/>
		<path class="st0" d="M72.8,259c-0.2-1.1-0.4-2.2-0.6-3.3C72.3,256.8,72.5,257.9,72.8,259z"/>
		<path class="st0" d="M74.1,264.6c-0.3-1.1-0.5-2.1-0.8-3.2C73.6,262.4,73.8,263.5,74.1,264.6z"/>
		<path class="st0" d="M71.7,253.4c-0.2-1.2-0.3-2.3-0.5-3.5C71.4,251.1,71.5,252.2,71.7,253.4z"/>
		<path class="st0" d="M95.3,305.9c2.4,2.9,4.9,5.7,7.5,8.3C100.2,311.6,97.7,308.8,95.3,305.9z"/>
		<path class="st0" d="M82.1,285.6c-0.5-1-1-2-1.5-3C81.1,283.6,81.6,284.6,82.1,285.6z"/>
		<path class="st0" d="M70.5,241.9c-0.1-1.9-0.2-3.9-0.2-5.9C70.3,238,70.4,239.9,70.5,241.9z"/>
		<path class="st0" d="M79.7,280.5c-0.4-1-0.9-2-1.3-3C78.9,278.5,79.3,279.5,79.7,280.5z"/>
		<path class="st0" d="M77.6,275.3c-0.4-1-0.8-2-1.1-3.1C76.8,273.3,77.2,274.3,77.6,275.3z"/>
		<path class="st0" d="M75.7,270c-0.3-1-0.6-2.1-1-3.1C75.1,267.9,75.4,268.9,75.7,270z"/>
	</g>
	<path class="st1" d="M133.5,209c-2,0-3.9,0.8-5.3,2.2c-1.4,1.4-2.2,3.3-2.2,5.3c0,2,0.8,3.9,2.2,5.3c1.4,1.4,3.3,2.2,5.3,2.2
		c2,0,3.9-0.8,5.3-2.2c1.4-1.4,2.2-3.3,2.2-5.3c0-2-0.8-3.9-2.2-5.3C137.4,209.8,135.4,209,133.5,209z"/>
	<path class="st1" d="M133.5,247.9c-2,0-3.9,0.8-5.3,2.2c-1.4,1.4-2.2,3.3-2.2,5.3c0,2,0.8,3.9,2.2,5.3c1.4,1.4,3.3,2.2,5.3,2.2
		c2,0,3.9-0.8,5.3-2.2c1.4-1.4,2.2-3.3,2.2-5.3c0-2-0.8-3.9-2.2-5.3C137.4,248.7,135.4,247.9,133.5,247.9z"/>
	<path class="st1" d="M126.8,290.9c-2,0-3.9,0.8-5.3,2.2c-1.4,1.4-2.2,3.3-2.2,5.3c0,2,0.8,3.9,2.2,5.3c1.4,1.4,3.3,2.2,5.3,2.2
		c2,0,3.9-0.8,5.3-2.2c1.4-1.4,2.2-3.3,2.2-5.3c0-2-0.8-3.9-2.2-5.3C130.8,291.7,128.8,290.9,126.8,290.9z"/>
	<path class="st1" d="M126.8,181.1c2,0,3.9-0.8,5.3-2.2c1.4-1.4,2.2-3.3,2.2-5.3c0-2-0.8-3.9-2.2-5.3c-1.4-1.4-3.3-2.2-5.3-2.2
		c-2,0-3.9,0.8-5.3,2.2c-1.4,1.4-2.2,3.3-2.2,5.3c0,2,0.8,3.9,2.2,5.3C122.9,180.3,124.9,181.1,126.8,181.1z"/>
	<path class="st1" d="M106.3,192.3c-2,0-3.9,0.8-5.3,2.2c-1.4,1.4-2.2,3.3-2.2,5.3c0,2,0.8,3.9,2.2,5.3c1.4,1.4,3.3,2.2,5.3,2.2
		c2,0,3.9-0.8,5.3-2.2c1.4-1.4,2.2-3.3,2.2-5.3c0-2-0.8-3.9-2.2-5.3C110.2,193.1,108.3,192.3,106.3,192.3z"/>
	<path class="st1" d="M105.2,236.6c0-2-0.8-3.9-2.2-5.3c-1.4-1.4-3.3-2.2-5.3-2.2c-2,0-3.9,0.8-5.3,2.2c-1.4,1.4-2.2,3.3-2.2,5.3
		c0,2,0.8,3.9,2.2,5.3c1.4,1.4,3.3,2.2,5.3,2.2c2,0,3.9-0.8,5.3-2.2C104.4,240.6,105.2,238.6,105.2,236.6z"/>
	<path class="st1" d="M106.3,265.8c-2,0-3.9,0.8-5.3,2.2c-1.4,1.4-2.2,3.3-2.2,5.3c0,2,0.8,3.9,2.2,5.3c1.4,1.4,3.3,2.2,5.3,2.2
		c2,0,3.9-0.8,5.3-2.2c1.4-1.4,2.2-3.3,2.2-5.3c0-2-0.8-3.9-2.2-5.3C110.2,266.6,108.3,265.8,106.3,265.8z"/>
	<path class="st1" d="M228.6,120.1c10.3-13.6,34-42.1,59.3-53.5c3.8-1.7,6.1-5.5,4.8-9.5c-1.3-4-5.5-6.1-9.5-4.8
		c-9.6,3.1-18.7,8.5-27.1,15c-2.9-11.7-9.2-28.6-22.5-41.9c-12-12-25.7-18.3-35.1-21.6c-13.6-4.7-22.4-5.1-26.4-1.2
		c0,0-1,0.8-1.7,2.6c-1.9,4.7-1,12.6,2.8,23.8c3.2,9.4,9.6,23.1,21.6,35.1c12.9,12.9,29.2,19.2,40.8,22.2
		c-10.4,11.3-18.3,22.4-22.4,28.6c-10.4-2.8-21.4-4.3-32.8-4.3c-69.2,0-125.4,56.3-125.4,125.4s56.3,125.4,125.4,125.4
		c69.2,0,125.4-56.3,125.4-125.4C306.1,183.8,274.1,138.9,228.6,120.1z M223.1,36.1c11.3,11.3,16.5,26.5,18.8,36.3
		c-9.8-2.3-25-7.5-36.3-18.8c-12.9-12.9-18.6-29.1-20.3-37.8C194,17.5,210.2,23.1,223.1,36.1z M70.3,236
		c0-60.9,49.5-110.4,110.4-110.4c3.6,0,7.2,0.2,10.7,0.5c-4.1,3.5-6.3,6.6-6.5,6.9c-2.3,3.5-1.4,8.2,2.1,10.5
		c1.3,0.9,2.7,1.3,4.2,1.3c2.4,0,4.8-1.2,6.2-3.3c0.2-0.4,5.6-7.8,16.3-9.8c6.6,8.5,5.7,17.6,5.6,18.1c-0.5,4.1,2.3,7.9,6.4,8.4
		c0.4,0.1,0.7,0.1,1.1,0.1c3.7,0,6.9-2.7,7.4-6.5c0.1-0.4,0.7-5.7-0.8-12.8c34.3,18.7,57.7,55.2,57.7,97
		c0,60.9-49.5,110.4-110.4,110.4C119.8,346.4,70.3,296.9,70.3,236z"/>
</g>
</svg>
